<svg width="13" height="13" viewBox="0 0 13 13" fill="none" xmlns="http://www.w3.org/2000/svg">
<path d="M12.4922 8.48047C12.7727 8.48047 13 8.25312 13 7.97266V0.507812C13 0.227348 12.7727 0 12.4922 0H8.91211C8.63164 0 8.4043 0.227348 8.4043 0.507812V2.03125H6.80469V1.59961C6.80469 1.31914 6.57734 1.0918 6.29688 1.0918H3.22461V0.507812C3.22461 0.227348 2.99726 0 2.7168 0H0.507812C0.227348 0 0 0.227348 0 0.507812V12.4922C0 12.7727 0.227348 13 0.507812 13H12.4922C12.7727 13 13 12.7727 13 12.4922V10.4609C13 10.1805 12.7727 9.95312 12.4922 9.95312H9.41992V1.01562H11.9844V7.97266C11.9844 8.25312 12.2117 8.48047 12.4922 8.48047ZM2.20898 11.9844H1.01562V10.9688H2.20898V11.9844ZM2.20898 9.95312H1.01562V3.04688H2.20898V9.95312ZM2.20898 2.03125H1.01562V1.01562H2.20898V2.03125ZM5.78906 11.9844H3.22461V2.10742H5.78906V11.9844ZM8.4043 11.9844H6.80469V5.07812H8.4043V11.9844ZM8.4043 4.0625H6.80469V3.04688H8.4043V4.0625ZM11.9844 10.9688V11.9844H9.41992V10.9688H11.9844Z" fill="#B8B8B8"/>
</svg>
