<svg width="13" height="13" viewBox="0 0 13 13" fill="none" xmlns="http://www.w3.org/2000/svg">
<path d="M12.4922 10.4609C12.2117 10.4609 11.9844 10.6883 11.9844 10.9688C11.9844 11.5288 11.5288 11.9844 10.9688 11.9844H2.03125C1.47123 11.9844 1.01562 11.5288 1.01562 10.9688V6.38889C1.02489 6.39597 1.03375 6.40298 1.04317 6.41009C1.05386 6.41817 1.06486 6.42581 1.07613 6.43299L3.04688 7.69026V8.35352C3.04688 8.63398 3.27422 8.86133 3.55469 8.86133C3.83515 8.86133 4.0625 8.63398 4.0625 8.35352V7.61264L4.45126 7.39299C4.45298 7.39202 4.45471 7.39103 4.45644 7.39004C5.72074 6.656 7.29617 6.64686 8.5689 7.36582L8.9375 7.58233V8.35352C8.9375 8.63398 9.16485 8.86133 9.44531 8.86133C9.72578 8.86133 9.95312 8.63398 9.95312 8.35352V7.69026L11.9238 6.43299C11.9351 6.42578 11.9461 6.41817 11.9568 6.41009C11.9662 6.40298 11.9751 6.39597 11.9843 6.38889V8.40524C11.9843 8.6857 12.2117 8.91305 12.4922 8.91305C12.7726 8.91305 13 8.6857 13 8.40524V4.0625C13 2.94247 12.0888 2.03125 10.9688 2.03125H8.78328V1.52344C8.78328 0.683414 8.09986 0 7.25984 0H5.74016C4.90014 0 4.21672 0.683414 4.21672 1.52344V2.03125H2.03125C0.911219 2.03125 0 2.94247 0 4.0625V10.9688C0 12.0888 0.911219 13 2.03125 13H10.9688C12.0888 13 13 12.0888 13 10.9688C13 10.6883 12.7727 10.4609 12.4922 10.4609ZM5.23235 1.52344C5.23235 1.24343 5.46015 1.01562 5.74016 1.01562H7.25984C7.53985 1.01562 7.76765 1.24343 7.76765 1.52344V2.03125H5.23235V1.52344ZM1.01562 4.0625C1.01562 3.50248 1.47123 3.04688 2.03125 3.04688H10.9688C11.5288 3.04688 11.9844 3.50248 11.9844 4.0625V4.64958C11.9844 4.89803 11.9843 5.11288 11.3603 5.58782L9.53245 6.75393L9.07971 6.48802C9.0774 6.48667 9.07507 6.48532 9.07273 6.484C8.29941 6.04614 7.42209 5.81511 6.53364 5.81511C6.52443 5.81511 6.51513 5.81514 6.50592 5.81519C5.60902 5.82004 4.72499 6.06036 3.94908 6.51023L3.49111 6.76899L1.6397 5.58784C1.01565 5.11288 1.01562 4.89803 1.01562 4.64958V4.0625Z" fill="#B8B8B8"/>
</svg>
