<svg width="16" height="17" viewBox="0 0 16 17" fill="none" xmlns="http://www.w3.org/2000/svg">
<path d="M15.3206 14.3435C15.6958 14.3435 16 14.0462 16 13.6795C16 13.3127 15.6958 13.0154 15.3206 13.0154H14.7871C14.6503 12.9123 14.4034 12.6403 14.4034 12.0194C14.4034 11.3984 14.6502 11.1264 14.7871 11.0233H15.3206C15.6958 11.0233 16 10.726 16 10.3592C16 9.99246 15.6958 9.69516 15.3206 9.69516H12.0878C12.3271 9.4224 12.3016 9.01168 12.0269 8.77C11.7481 8.5246 11.3185 8.54664 11.0674 8.81924C10.4307 9.51059 9.69553 9.66196 9.46595 9.66196C9.4631 9.66196 9.46031 9.66232 9.45746 9.66239C9.45461 9.66236 9.45185 9.66196 9.44897 9.66196C8.9853 9.66196 8.83121 9.59751 8.55146 9.48047C8.42489 9.42748 8.2814 9.36748 8.09816 9.30768L7.86396 9.23125L7.63415 9.31964C7.50218 9.3704 7.39133 9.41759 7.29353 9.45922C6.9666 9.59844 6.8174 9.66196 6.29608 9.66196C6.036 9.66196 5.38761 9.50756 4.79506 8.92316C4.03592 8.17447 3.63469 6.96277 3.63469 5.41891C3.63469 4.76113 3.89952 4.23088 4.38836 3.89159C4.72803 4.15854 5.12508 4.38986 5.57764 4.5236C5.8597 4.60697 6.12976 4.64861 6.38682 4.64861C6.73828 4.64861 7.06531 4.57071 7.36446 4.41519C7.39041 4.40168 7.86865 4.14904 8.19205 3.72819C8.34675 3.70462 8.46857 3.6672 8.58088 3.63254C8.79211 3.56739 9.05501 3.48631 9.84568 3.48631C11.2637 3.48631 12.1103 4.2088 12.1103 5.41891C12.1103 5.46742 12.116 5.51457 12.1261 5.56012C12.1215 5.85051 12.1027 6.13055 12.0698 6.39421C12.0244 6.75824 12.2895 7.08934 12.662 7.1337C12.6899 7.13702 12.7176 7.13862 12.745 7.13862C13.0836 7.13862 13.3766 6.89162 13.4186 6.55481C13.4634 6.19556 13.4861 5.81336 13.4861 5.41888C13.4861 5.36396 13.4785 5.31094 13.4657 5.2599C13.3886 3.39776 11.9536 2.15817 9.84574 2.15817C9.43011 2.15817 9.1202 2.17895 8.87924 2.2095C9.05898 1.86589 9.32175 1.48136 9.69604 1.16919C9.98146 0.931128 10.0154 0.511977 9.77182 0.233007C9.52825 -0.0459625 9.09941 -0.079132 8.81399 0.158932C8.38497 0.516758 8.06371 0.931659 7.82568 1.32677C7.55425 1.06328 7.19678 0.864557 6.75591 0.734269C5.10334 0.24589 3.32046 1.23311 3.22724 1.28573C3.22636 1.28626 3.22544 1.28676 3.22453 1.28729C2.90068 1.47193 2.79028 1.87854 2.97882 2.19526C2.9812 2.19924 2.98357 2.20316 2.98602 2.20704C3.04757 2.32156 3.20438 2.59654 3.45047 2.92213C2.70366 3.51221 2.276 4.40058 2.276 5.41901C2.276 7.64695 3.00287 8.95879 3.67392 9.69526H1.69853C0.761961 9.69526 0 10.44 0 11.3554V12.6835C0 13.0069 0.0954235 13.3087 0.259672 13.5641C0.0965785 13.7832 0 14.0526 0 14.3436V15.3397C0 16.2551 0.761961 16.9998 1.69853 16.9998H14.5152C14.5164 16.9998 14.5176 17 14.5188 17C14.5203 17 14.5218 16.9998 14.5232 16.9998H15.3206C15.6958 16.9998 16 16.7025 16 16.3358C16 15.969 15.6958 15.6717 15.3206 15.6717H14.7207C14.6347 15.5869 14.5096 15.3966 14.5096 15.0077C14.5096 14.6187 14.6347 14.4284 14.7207 14.3436H15.3206V14.3435ZM6.36263 2.0056C6.83411 2.14495 6.94482 2.34985 6.9812 2.41718C7.06956 2.58067 7.07041 2.7698 7.07109 2.9218C7.07116 2.93926 7.07126 2.95653 7.07146 2.97366C6.98246 3.06978 6.82898 3.18941 6.72639 3.24274C6.65573 3.27949 6.44073 3.39129 5.97109 3.25247C5.35727 3.07101 4.86847 2.5645 4.55719 2.15399C5.05126 1.9808 5.74803 1.82395 6.36263 2.0056ZM13.2323 15.6717H1.6985C1.51118 15.6717 1.35879 15.5227 1.35879 15.3396L1.35794 14.3436C1.35794 14.3436 1.35821 14.3435 1.35879 14.3435C1.40411 14.3435 1.44834 14.339 1.49118 14.3307C1.55918 14.3389 1.62828 14.3435 1.6985 14.3435H8.5605C8.93574 14.3435 9.23991 14.0462 9.23991 13.6795C9.23991 13.3127 8.93574 13.0154 8.5605 13.0154H1.6985C1.51118 13.0154 1.35879 12.8665 1.35879 12.6834V11.3553C1.35879 11.1722 1.51118 11.0233 1.6985 11.0233H13.2064C13.1066 11.3047 13.0446 11.635 13.0446 12.0194C13.0446 12.4037 13.1066 12.734 13.2064 13.0154H11.9575C11.5823 13.0154 11.2781 13.3127 11.2781 13.6795C11.2781 14.0462 11.5823 14.3435 11.9575 14.3435H13.2323C13.1811 14.5403 13.1508 14.7608 13.1508 15.0076C13.1508 15.2544 13.1812 15.4749 13.2323 15.6717Z" fill="#D0BF93"/>
</svg>
