<svg width="16" height="16" viewBox="0 0 16 16" fill="none" xmlns="http://www.w3.org/2000/svg">
<path d="M15.816 11.0397L12.6421 7.8786L15.0623 5.46497C15.667 4.86032 16 4.05641 16 3.20132C16 2.34623 15.667 1.54232 15.0623 0.937694C14.4577 0.333007 13.6538 7.43834e-06 12.7987 7.43834e-06C11.9436 7.43834e-06 11.1397 0.333007 10.535 0.937663L8.12711 3.34554L4.95077 0.182164C4.83308 0.0649762 4.67349 -0.000805061 4.50755 7.43834e-06C4.34149 0.000601188 4.18249 0.0672262 4.06562 0.185226L0.180929 4.10807C-0.0614766 4.35285 -0.0601016 4.74757 0.183992 4.99069L3.33937 8.13335L1.5883 9.88441C1.51218 9.96053 1.45702 10.055 1.42815 10.1588L0.0228983 15.2074C-0.0376954 15.4252 0.0239608 15.6587 0.184242 15.8181C0.302992 15.9362 0.462117 16 0.625054 16C0.681992 16 0.739429 15.9922 0.795773 15.9762L5.84443 14.5421C6.05743 14.4816 6.22255 14.3129 6.27843 14.0986C6.3343 13.8843 6.27261 13.6565 6.11627 13.4996L2.9334 10.3071L10.3495 2.89101L13.1075 5.64907L7.43024 11.3109C7.31246 11.4283 7.2464 11.5878 7.24658 11.7542C7.24677 11.9205 7.31327 12.0798 7.4313 12.197L11.08 15.8186C11.1971 15.9348 11.3554 16 11.5203 16C11.5212 16 11.5221 16 11.523 16C11.6889 15.9993 11.8477 15.9327 11.9644 15.8148L15.8191 11.9223C16.0615 11.6775 16.0601 11.2828 15.816 11.0397ZM4.48108 13.6299L1.52584 14.4694L2.35349 11.4959L4.48108 13.6299ZM4.22327 7.24947L1.50765 4.54479L4.5128 1.51013L5.50449 2.49776L4.27324 3.74916C4.03118 3.99522 4.03436 4.39094 4.28043 4.63301C4.40215 4.75279 4.56046 4.81251 4.71874 4.81251C4.8804 4.81251 5.04196 4.75016 5.1643 4.62585L6.39021 3.37988L7.24327 4.22947L4.22327 7.24947ZM11.2334 2.0071L11.419 1.82154C11.7875 1.45298 12.2775 1.25001 12.7987 1.25001C13.3199 1.25001 13.8099 1.45298 14.1785 1.82157C14.547 2.1901 14.75 2.6801 14.75 3.20132C14.75 3.72254 14.547 4.21254 14.179 4.58047L13.9926 4.76638L11.2334 2.0071ZM11.5165 14.4906L8.75774 11.7524L11.757 8.76132L12.6002 9.60106L11.4002 10.8097C11.1571 11.0547 11.1585 11.4504 11.4035 11.6936C11.5253 11.8146 11.6846 11.875 11.8438 11.875C12.0045 11.875 12.1652 11.8134 12.2873 11.6904L13.4859 10.4832L14.4924 11.4856L11.5165 14.4906Z" fill="#D0BF93"/>
</svg>
