<svg width="11" height="14" viewBox="0 0 11 14" fill="none" xmlns="http://www.w3.org/2000/svg">
<path d="M10.4896 8.98376C10.7715 8.98376 11 8.75523 11 8.47332V2.04176C11 0.915935 10.0841 0 8.95824 0H2.04176C0.915935 0 0 0.915935 0 2.04176V11.0255C0 12.1514 0.915935 13.0673 2.04176 13.0673H8.95824C10.0841 13.0673 11 12.1514 11 11.0255C11 10.7436 10.7715 10.5151 10.4896 10.5151C10.2076 10.5151 9.97912 10.7436 9.97912 11.0255C9.97912 11.5884 9.52115 12.0464 8.95824 12.0464H2.04176C1.47885 12.0464 1.02088 11.5884 1.02088 11.0255V10.2599H5.00804C5.16273 10.7144 5.52019 11.0255 5.94664 11.0255C6.5191 11.0255 6.96752 10.465 6.96752 9.74942C6.96752 9.03383 6.5191 8.47332 5.94664 8.47332C5.52019 8.47332 5.16273 8.78448 5.00804 9.23898H1.02088V7.04408H2.37927C2.53396 7.49858 2.89142 7.80974 3.31787 7.80974C3.89032 7.80974 4.33875 7.24923 4.33875 6.53364C4.33875 5.81806 3.89032 5.25754 3.31787 5.25754C2.89142 5.25754 2.53396 5.56871 2.37927 6.0232H1.02088V3.82831H3.73194C3.88662 4.2828 4.24409 4.59397 4.67053 4.59397C5.24299 4.59397 5.69142 4.03345 5.69142 3.31787C5.69142 2.60228 5.24299 2.04176 4.67053 2.04176C4.24409 2.04176 3.88662 2.35293 3.73194 2.80742H1.02088V2.04176C1.02088 1.47885 1.47885 1.02088 2.04176 1.02088H8.95824C9.52115 1.02088 9.97912 1.47885 9.97912 2.04176V2.80742H9.21346C8.93154 2.80742 8.70302 3.03595 8.70302 3.31787C8.70302 3.59978 8.93154 3.82831 9.21346 3.82831H9.97912V6.0232H5.87007C5.58815 6.0232 5.35963 6.25173 5.35963 6.53364C5.35963 6.81556 5.58815 7.04408 5.87007 7.04408H9.97912V8.47332C9.97912 8.75523 10.2076 8.98376 10.4896 8.98376Z" fill="#B8B8B8"/>
</svg>
