<svg width="13" height="13" viewBox="0 0 13 13" fill="none" xmlns="http://www.w3.org/2000/svg">
<path d="M11.4766 9.95312C10.8146 9.95312 10.2501 10.3777 10.0405 10.9688H8.97711C8.76748 10.3777 8.20303 9.95312 7.54102 9.95312C7.42782 9.95312 7.31763 9.96592 7.21142 9.98943L6.64988 9.04803C6.85773 8.78759 6.98242 8.45797 6.98242 8.09961C6.98242 7.74132 6.8578 7.4118 6.65003 7.15137L7.1985 6.20679C7.30869 6.2322 7.42323 6.24609 7.54102 6.24609C7.82148 6.24609 8.04883 6.01875 8.04883 5.73828C8.04883 5.45782 7.82148 5.23047 7.54102 5.23047C7.26101 5.23047 7.0332 5.00266 7.0332 4.72266C7.0332 4.44265 7.26101 4.21484 7.54102 4.21484C7.82102 4.21484 8.04883 4.44265 8.04883 4.72266C8.04883 5.00312 8.27618 5.23047 8.55664 5.23047C8.56949 5.23047 8.58211 5.22948 8.59473 5.22854C8.60735 5.22948 8.61996 5.23047 8.63281 5.23047H10.0405C10.2501 5.82151 10.8146 6.24609 11.4766 6.24609C11.757 6.24609 11.9844 6.01875 11.9844 5.73828C11.9844 5.45782 11.757 5.23047 11.4766 5.23047C11.1966 5.23047 10.9688 5.00266 10.9688 4.72266C10.9688 4.44265 11.1966 4.21484 11.4766 4.21484C11.7566 4.21484 11.9844 4.44265 11.9844 4.72266C11.9844 5.00312 12.2117 5.23047 12.4922 5.23047C12.7727 5.23047 13 5.00312 13 4.72266C13 3.88263 12.3166 3.19922 11.4766 3.19922C10.8146 3.19922 10.2501 3.6238 10.0405 4.21484H8.97711C8.76748 3.6238 8.20303 3.19922 7.54102 3.19922C7.39479 3.19922 7.25352 3.22034 7.11956 3.25899L6.50333 2.39629C6.67697 2.14886 6.7793 1.84796 6.7793 1.52344C6.7793 0.683414 6.09588 0 5.25586 0C4.41584 0 3.73242 0.683414 3.73242 1.52344C3.73242 2.36346 4.41584 3.04688 5.25586 3.04688C5.40206 3.04688 5.54336 3.02575 5.67729 2.98711L6.29352 3.84983C6.1199 4.09723 6.01758 4.39814 6.01758 4.72266C6.01758 5.07602 6.13884 5.4014 6.34149 5.6601L5.7885 6.61245C5.68232 6.58894 5.57215 6.57615 5.45898 6.57615C4.79697 6.57615 4.23254 7.00073 4.02289 7.59177H2.95953C2.74991 7.00073 2.18545 6.57615 1.52344 6.57615C0.683414 6.57615 0 7.25956 0 8.09958C0 8.93961 0.683414 9.62302 1.52344 9.62302C1.8039 9.62302 2.03125 9.39567 2.03125 9.11521C2.03125 8.83474 1.8039 8.6074 1.52344 8.6074C1.24343 8.6074 1.01562 8.37959 1.01562 8.09958C1.01562 7.81958 1.24343 7.59177 1.52344 7.59177C1.80345 7.59177 2.03125 7.81958 2.03125 8.09958C2.03125 8.38005 2.2586 8.6074 2.53906 8.6074H4.02289C4.23252 9.19844 4.79697 9.62302 5.45898 9.62302C5.57218 9.62302 5.68237 9.61022 5.78858 9.58671L6.35012 10.5281C6.14227 10.7886 6.01758 11.1182 6.01758 11.4766C6.01758 12.3166 6.70099 13 7.54102 13C7.82148 13 8.04883 12.7727 8.04883 12.4922C8.04883 12.2117 7.82148 11.9844 7.54102 11.9844C7.26101 11.9844 7.0332 11.7566 7.0332 11.4766C7.0332 11.1966 7.26101 10.9688 7.54102 10.9688C7.82102 10.9688 8.04883 11.1966 8.04883 11.4766C8.04883 11.757 8.27618 11.9844 8.55664 11.9844C8.56949 11.9844 8.58211 11.9834 8.59473 11.9824C8.60735 11.9834 8.61996 11.9844 8.63281 11.9844H10.0405C10.2501 12.5754 10.8146 13 11.4766 13C11.757 13 11.9844 12.7727 11.9844 12.4922C11.9844 12.2117 11.757 11.9844 11.4766 11.9844C11.1966 11.9844 10.9688 11.7566 10.9688 11.4766C10.9688 11.1966 11.1966 10.9688 11.4766 10.9688C11.7566 10.9688 11.9844 11.1966 11.9844 11.4766C11.9844 11.757 12.2117 11.9844 12.4922 11.9844C12.7727 11.9844 13 11.757 13 11.4766C13 10.6365 12.3166 9.95312 11.4766 9.95312ZM5.25586 2.03125C4.97585 2.03125 4.74805 1.80345 4.74805 1.52344C4.74805 1.24343 4.97585 1.01562 5.25586 1.01562C5.53587 1.01562 5.76367 1.24343 5.76367 1.52344C5.76367 1.80345 5.53587 2.03125 5.25586 2.03125ZM5.45898 8.60742C5.17898 8.60742 4.95117 8.37962 4.95117 8.09961C4.95117 7.8196 5.17898 7.5918 5.45898 7.5918C5.73899 7.5918 5.9668 7.8196 5.9668 8.09961C5.9668 8.37962 5.73899 8.60742 5.45898 8.60742Z" fill="#B8B8B8"/>
</svg>
