<svg width="20" height="17" viewBox="0 0 20 17" fill="none" xmlns="http://www.w3.org/2000/svg">
<path d="M16.7341 6.95647C16.7341 6.52958 16.3881 6.18353 15.9612 6.18353H11.4781C11.0512 6.18353 10.7052 6.52958 10.7052 6.95647C10.7052 7.38337 11.0512 7.72942 11.4781 7.72942H15.9612C16.3881 7.72942 16.7341 7.38337 16.7341 6.95647Z" fill="#D0BF93"/>
<path d="M11.4781 9.2753C11.0512 9.2753 10.7052 9.62135 10.7052 10.0482C10.7052 10.4751 11.0512 10.8212 11.4781 10.8212H14.4153C14.8422 10.8212 15.1883 10.4751 15.1883 10.0482C15.1883 9.62135 14.8422 9.2753 14.4153 9.2753H11.4781Z" fill="#D0BF93"/>
<path d="M19.0144 7.72942C19.4413 7.72942 19.7873 7.38337 19.7873 6.95647V3.09177C19.7873 1.38697 18.4003 0 16.6955 0H3.09177C1.38697 0 0 1.38697 0 3.09177V10.8212C0 12.526 1.38697 13.9129 3.09177 13.9129H9.12071V15.4541H6.41542C5.98852 15.4541 5.64247 15.8002 5.64247 16.2271C5.64247 16.654 5.98852 17 6.41542 17H13.3719C13.7988 17 14.1448 16.654 14.1448 16.2271C14.1448 15.8002 13.7988 15.4541 13.3719 15.4541H10.6666V13.9129H16.6955C18.4003 13.9129 19.7873 12.526 19.7873 10.8212C19.7873 10.3943 19.4413 10.0482 19.0144 10.0482C18.5875 10.0482 18.2414 10.3943 18.2414 10.8212C18.2414 11.6736 17.5479 12.3671 16.6955 12.3671H3.09177C2.23937 12.3671 1.54588 11.6736 1.54588 10.8212V3.09177C1.54588 2.23937 2.23937 1.54588 3.09177 1.54588H16.6955C17.5479 1.54588 18.2414 2.23937 18.2414 3.09177V6.95647C18.2414 7.38337 18.5875 7.72942 19.0144 7.72942Z" fill="#D0BF93"/>
<path d="M8.30916 6.18353H3.8261C3.39921 6.18353 3.05316 6.52958 3.05316 6.95647C3.05316 7.38337 3.39921 7.72942 3.8261 7.72942H8.30916C8.73606 7.72942 9.08211 7.38337 9.08211 6.95647C9.08211 6.52958 8.73606 6.18353 8.30916 6.18353Z" fill="#D0BF93"/>
<path d="M15.9612 3.09177H11.4781C11.0512 3.09177 10.7052 3.43782 10.7052 3.86471C10.7052 4.29161 11.0512 4.63765 11.4781 4.63765H15.9612C16.3881 4.63765 16.7341 4.29161 16.7341 3.86471C16.7341 3.43782 16.3881 3.09177 15.9612 3.09177Z" fill="#D0BF93"/>
<path d="M8.30916 3.09177H3.8261C3.39921 3.09177 3.05316 3.43782 3.05316 3.86471C3.05316 4.29161 3.39921 4.63765 3.8261 4.63765H8.30916C8.73606 4.63765 9.08211 4.29161 9.08211 3.86471C9.08211 3.43782 8.73606 3.09177 8.30916 3.09177Z" fill="#D0BF93"/>
<path d="M8.30916 9.2753H3.8261C3.39921 9.2753 3.05316 9.62135 3.05316 10.0482C3.05316 10.4751 3.39921 10.8212 3.8261 10.8212H8.30916C8.73606 10.8212 9.08211 10.4751 9.08211 10.0482C9.08211 9.62135 8.73606 9.2753 8.30916 9.2753Z" fill="#D0BF93"/>
</svg>
