<svg width="13" height="16" viewBox="0 0 13 16" fill="none" xmlns="http://www.w3.org/2000/svg">
<path d="M9.5625 11.6562H7.71875C7.37356 11.6562 7.09375 11.9361 7.09375 12.2813C7.09375 12.6264 7.37356 12.9063 7.71875 12.9063H9.5625C9.90769 12.9063 10.1875 12.6264 10.1875 12.2813C10.1875 11.9361 9.90769 11.6562 9.5625 11.6562Z" fill="#D0BF93"/>
<path d="M9.5625 7.875H7.71875C7.37356 7.875 7.09375 8.15481 7.09375 8.5C7.09375 8.84519 7.37356 9.125 7.71875 9.125H9.5625C9.90769 9.125 10.1875 8.84519 10.1875 8.5C10.1875 8.15481 9.90769 7.875 9.5625 7.875Z" fill="#D0BF93"/>
<path d="M12.059 11C12.4042 11 12.684 10.7202 12.684 10.375V2.5C12.684 1.1215 11.5625 0 10.184 0H2.5C1.1215 0 0 1.1215 0 2.5V13.5C0 14.8785 1.1215 16 2.5 16H10.184C11.5625 16 12.684 14.8785 12.684 13.5C12.684 13.1548 12.4042 12.875 12.059 12.875C11.7138 12.875 11.434 13.1548 11.434 13.5C11.434 14.1892 10.8733 14.75 10.184 14.75H2.5C1.81075 14.75 1.25 14.1892 1.25 13.5V2.5C1.25 1.81075 1.81075 1.25 2.5 1.25H10.184C10.8733 1.25 11.434 1.81075 11.434 2.5V10.375C11.434 10.7202 11.7138 11 12.059 11Z" fill="#D0BF93"/>
<path d="M6.33556 2.48696C6.0695 2.26715 5.67553 2.30458 5.45568 2.57071L4.10553 4.20486L3.57278 3.65777C3.332 3.41049 2.93628 3.40521 2.68897 3.64602C2.44168 3.88683 2.4364 4.28252 2.67722 4.52983L3.34765 5.21836C3.35318 5.22405 3.35881 5.22961 3.36456 5.23508C3.56715 5.42793 3.83756 5.53518 4.11572 5.53518C4.13959 5.53511 4.16362 5.53433 4.18762 5.53271C4.48903 5.51261 4.7705 5.36674 4.96072 5.13227L6.41931 3.36686C6.63918 3.10074 6.60169 2.7068 6.33556 2.48696Z" fill="#D0BF93"/>
<path d="M6.33555 10.108C6.06949 9.88823 5.67552 9.9257 5.45568 10.1918L4.10515 11.8264L3.57155 11.2814C3.33002 11.0348 2.93434 11.0307 2.68771 11.2722C2.44109 11.5137 2.43696 11.9094 2.67843 12.156L3.34887 12.8407C3.35399 12.8459 3.35921 12.8511 3.36452 12.8561C3.56712 13.049 3.83755 13.1563 4.11571 13.1563C4.13962 13.1562 4.16362 13.1554 4.18762 13.1538C4.48899 13.1337 4.77046 12.9879 4.96071 12.7534L6.4193 10.9879C6.63918 10.7218 6.60168 10.3279 6.33555 10.108Z" fill="#D0BF93"/>
<path d="M9.5625 4.03125H7.71875C7.37356 4.03125 7.09375 4.31106 7.09375 4.65625C7.09375 5.00144 7.37356 5.28125 7.71875 5.28125H9.5625C9.90769 5.28125 10.1875 5.00144 10.1875 4.65625C10.1875 4.31106 9.90769 4.03125 9.5625 4.03125Z" fill="#D0BF93"/>
<path d="M6.33555 6.32681C6.06949 6.10696 5.67552 6.14446 5.45568 6.41056L4.10515 8.04515L3.57155 7.50021C3.33002 7.25359 2.93434 7.24946 2.68771 7.49096C2.44109 7.73246 2.43696 8.12818 2.67843 8.3748L3.34887 9.05946C3.35399 9.06468 3.35921 9.06984 3.36452 9.0749C3.56712 9.26774 3.83755 9.37502 4.11571 9.37502C4.13962 9.37496 4.16362 9.37418 4.18762 9.37259C4.48899 9.35249 4.77046 9.20662 4.96071 8.97215L6.4193 7.20671C6.63918 6.94059 6.60168 6.54665 6.33555 6.32681Z" fill="#D0BF93"/>
</svg>
