<svg width="16" height="14" viewBox="0 0 16 14" fill="none" xmlns="http://www.w3.org/2000/svg">
<path d="M16 0.5C16 0.2 15.7333 0 15.3333 0H0.666667C0.266667 0 0 0.2 0 0.5V1.5C0 1.8 0.266667 2 0.666667 2H15.3333C15.7333 2 16 1.8 16 1.5V0.5Z" fill="white"/>
<path d="M16 6.5C16 6.2 15.7333 6 15.3333 6H0.666667C0.266667 6 0 6.2 0 6.5V7.5C0 7.8 0.266667 8 0.666667 8H15.3333C15.7333 8 16 7.8 16 7.5V6.5Z" fill="white"/>
<path d="M16 12.5C16 12.2 15.7333 12 15.3333 12H0.666667C0.266667 12 0 12.2 0 12.5V13.5C0 13.8 0.266667 14 0.666667 14H15.3333C15.7333 14 16 13.8 16 13.5V12.5Z" fill="white"/>
</svg>
