<svg width="5" height="9" viewBox="0 0 5 9" fill="none" xmlns="http://www.w3.org/2000/svg">
<path d="M4.35746 0H0.642535C0.287001 0 0 0.293856 0 0.655601V8.34506C0 8.70647 0.287001 9 0.642535 9H4.35746C4.71236 9 5 8.70647 5 8.34506V0.655601C5 0.293856 4.71236 0 4.35746 0ZM1.58333 0.398149H3.41731C3.46364 0.398149 3.50129 0.468661 3.50129 0.5559C3.50129 0.643138 3.46364 0.713979 3.41731 0.713979H1.58333C1.53668 0.713979 1.49968 0.643138 1.49968 0.5559C1.49968 0.468661 1.53668 0.398149 1.58333 0.398149ZM2.50032 8.35293C2.27413 8.35293 2.09009 8.16533 2.09009 7.93444C2.09009 7.70356 2.27413 7.51662 2.50032 7.51662C2.72587 7.51662 2.90991 7.70356 2.90991 7.93444C2.90991 8.16533 2.72587 8.35293 2.50032 8.35293ZM4.51866 6.92005H0.48166V1.10622H4.51866V6.92005Z" fill="white"/>
</svg>
